<?xml version="1.0" encoding="UTF-8"?>
<svg xmlns="http://www.w3.org/2000/svg" viewBox="0 0 256 256" role="img" aria-label="Easy-SQL">
  <defs>
    <linearGradient id="bg" x1="28" y1="24" x2="224" y2="232" gradientUnits="userSpaceOnUse">
      <stop offset="0" stop-color="#102131"/>
      <stop offset="0.52" stop-color="#0D1723"/>
      <stop offset="1" stop-color="#071017"/>
    </linearGradient>
    <linearGradient id="accent" x1="60" y1="54" x2="203" y2="191" gradientUnits="userSpaceOnUse">
      <stop offset="0" stop-color="#36C2A5"/>
      <stop offset="1" stop-color="#72A7FF"/>
    </linearGradient>
    <filter id="shadow" x="-20%" y="-20%" width="140%" height="140%">
      <feDropShadow dx="0" dy="14" stdDeviation="14" flood-color="#000000" flood-opacity="0.35"/>
    </filter>
  </defs>
  <rect x="18" y="18" width="220" height="220" rx="44" fill="url(#bg)"/>
  <rect x="18" y="18" width="220" height="220" rx="44" fill="none" stroke="#26384A" stroke-width="3"/>
  <g filter="url(#shadow)">
    <ellipse cx="128" cy="76" rx="58" ry="24" fill="#101D2A" stroke="url(#accent)" stroke-width="9"/>
    <path d="M70 76v74c0 13.3 26 24 58 24s58-10.7 58-24V76" fill="none" stroke="url(#accent)" stroke-width="9" stroke-linecap="round"/>
    <ellipse cx="128" cy="150" rx="58" ry="24" fill="#101D2A" stroke="url(#accent)" stroke-width="9"/>
    <path d="M89 111c10 8 23 12 39 12s29-4 39-12" fill="none" stroke="#9CEBDD" stroke-width="7" stroke-linecap="round"/>
  </g>
  <path d="M78 197h101" stroke="#26384A" stroke-width="12" stroke-linecap="round"/>
  <text x="128" y="210" text-anchor="middle" font-family="Inter, Segoe UI, Arial, sans-serif" font-size="42" font-weight="800" letter-spacing="1" fill="#E7EDF4">SQL</text>
</svg>
